# File created by Blade
# Date/Time:  Thu Jan 22 16:04:59 2015
# Frame Rate: 120.000 fps
#------------------------------------------------------
:FULLY-SPECIFIED
:DEGREES
1527
root 3.257798 36.899785 5.261858 -3.758805 -4.358396 1.247712
RightUpLeg 10.549423 -0.511560 -7.795914
RightLeg -3.927934 -0.000000 0.000000
RightFoot -11.497578 -14.524101 19.355247
RightToeBase 11.779445 -0.000000 -0.000000
LeftUpLeg 9.263319 -0.467547 7.993746
LeftLeg -1.594543 -0.000000 0.000000
LeftFoot -6.200457 5.323136 -22.085093
LeftToeBase 7.584691 -0.000000 -0.000000
Spine 10.841545 -10.361729 -4.530537
RightShoulder 0.418011 -41.423384 -9.573078
RightArm 33.871725 -61.138548 53.392163
RightForeArm 13.621497 -0.000000 45.291869
RightHand 7.159014 -0.000000 16.007329
RightHandThumb1 -24.326973 -0.000000 -32.862282
LeftShoulder -28.200900 54.880989 -12.845875
LeftArm 70.923952 57.875110 -22.074645
LeftForeArm 38.003710 -0.000000 49.160738
LeftHand -2.673724 0.000000 -11.164026
LeftHandThumb1 -26.253704 0.000000 33.147579
Head 11.007231 19.368020 3.444780
1528
root 3.258151 36.904074 5.255525 -3.555311 -4.410165 1.229640
RightUpLeg 10.328423 -0.501177 -7.770988
RightLeg -3.934724 -0.000000 0.000000
RightFoot -11.457180 -14.529054 19.394675
RightToeBase 11.763252 -0.000000 -0.000000
LeftUpLeg 9.051289 -0.416710 8.009849
LeftLeg -1.568228 -0.000000 0.000000
LeftFoot -6.204786 5.365641 -22.084676
LeftToeBase 7.610617 -0.000000 -0.000000
Spine 10.618111 -10.439060 -4.493188
RightShoulder -0.342486 -41.241944 -9.241237
RightArm 33.320724 -60.907042 54.443017
RightForeArm 12.976742 0.000000 44.503624
RightHand 6.923559 0.000000 16.351763
RightHandThumb1 -24.326973 -0.000000 -32.862282
LeftShoulder -28.777697 54.591516 -13.056462
LeftArm 70.216101 58.069129 -23.458058
LeftForeArm 38.113460 0.000000 48.142137
LeftHand -2.506204 0.000000 -11.072074
LeftHandThumb1 -26.253704 0.000000 33.147579
Head 10.734770 19.494797 3.513611
1529
root 3.261249 36.908032 5.254543 -3.427179 -4.456537 1.241362
RightUpLeg 10.168856 -0.558250 -7.794132
RightLeg -3.901934 -0.000000 0.000000
RightFoot -11.407998 -14.464172 19.366459
RightToeBase 11.739631 -0.000000 -0.000000
LeftUpLeg 8.919290 -0.391421 7.988173
LeftLeg -1.540575 -0.000000 0.000000
LeftFoot -6.211643 5.407354 -22.093381
LeftToeBase 7.612365 -0.000000 -0.000000
Spine 10.468210 -10.448838 -4.485628
RightShoulder -1.169358 -41.085498 -8.883522
RightArm 32.730691 -60.639248 55.590602
RightForeArm 12.097889 -0.000000 43.729431
RightHand 6.657958 -0.000000 16.800641
RightHandThumb1 -24.326973 -0.000000 -32.862282
LeftShoulder -29.222308 54.342008 -13.150259
LeftArm 69.467072 58.243746 -24.950063
LeftForeArm 38.211133 -0.000000 47.023423
LeftHand -2.313947 -0.000000 -11.120408
LeftHandThumb1 -26.253704 0.000000 33.147579
Head 10.465443 19.494473 3.539127
1530
root 3.263248 36.913562 5.250687 -3.253828 -4.503182 1.238190
RightUpLeg 9.984796 -0.553028 -7.791271
RightLeg -3.913525 -0.000000 0.000000
RightFoot -11.359760 -14.447678 19.405299
RightToeBase 11.756385 -0.000000 -0.000000
LeftUpLeg 8.733717 -0.347950 7.985684
LeftLeg -1.507969 -0.000000 0.000000
LeftFoot -6.203369 5.445822 -22.123825
LeftToeBase 7.637225 -0.000000 -0.000000
Spine 10.260923 -10.365511 -4.418390
RightShoulder -2.165767 -40.900229 -8.453944
RightArm 31.882535 -60.311142 57.037019
RightForeArm 11.138518 -0.000000 42.901130
RightHand 6.324351 -0.000000 17.117135
RightHandThumb1 -24.326973 -0.000000 -32.862282
LeftShoulder -29.587423 54.113553 -13.193640
LeftArm 68.803684 58.424022 -26.332024
LeftForeArm 38.277772 -0.000000 45.868858
LeftHand -2.144077 -0.000000 -10.828464
LeftHandThumb1 -26.253704 0.000000 33.147579
Head 10.174727 19.412397 3.499541
1531
root 3.264645 36.919415 5.245091 -3.076691 -4.525881 1.256216
RightUpLeg 9.782949 -0.632279 -7.813677
RightLeg -3.898704 -0.000000 0.000000
RightFoot -11.282822 -14.404050 19.353508
RightToeBase 11.723738 -0.000000 -0.000000
LeftUpLeg 8.523116 -0.354199 7.957759
LeftLeg -1.450333 -0.000000 0.000000
LeftFoot -6.199894 5.507411 -22.131547
LeftToeBase 7.618694 -0.000000 -0.000000
Spine 10.051756 -10.274433 -4.396301
RightShoulder -3.245780 -40.750243 -7.969949
RightArm 31.064818 -59.893885 58.495047
RightForeArm 10.163922 -0.000000 42.006209
RightHand 6.023313 -0.000000 17.487412
RightHandThumb1 -24.326973 -0.000000 -32.862282
LeftShoulder -29.955654 53.909387 -13.162553
LeftArm 68.159859 58.570573 -27.738788
LeftForeArm 38.673651 -0.000000 44.690712
LeftHand -2.115396 -0.000000 -11.254826
LeftHandThumb1 -26.253704 0.000000 33.147579
Head 9.910128 19.402483 3.614499
1532
root 3.263849 36.925250 5.240467 -2.897271 -4.537255 1.259187
RightUpLeg 9.609484 -0.640868 -7.807798
RightLeg -3.928165 -0.000000 0.000000
RightFoot -11.259905 -14.445405 19.429892
RightToeBase 11.722415 -0.000000 -0.000000
LeftUpLeg 8.320149 -0.340144 7.951015
LeftLeg -1.413476 -0.000000 0.000000
LeftFoot -6.177214 5.550569 -22.137535
LeftToeBase 7.621966 -0.000000 -0.000000
Spine 9.850611 -10.239420 -4.377077
RightShoulder -4.344401 -40.549431 -7.474524
RightArm 30.276816 -59.543860 59.876068
RightForeArm 9.012002 0.000000 41.121968
RightHand 5.780116 0.000000 17.621679
RightHandThumb1 -24.326973 -0.000000 -32.862282
LeftShoulder -30.579454 53.680071 -13.300905
LeftArm 67.770623 58.741343 -28.843624
LeftForeArm 39.234252 -0.000000 43.502963
LeftHand -2.196791 -0.000000 -10.939051
LeftHandThumb1 -26.253704 0.000000 33.147579
Head 9.610103 19.394868 3.685781
1533
root 3.263618 36.931712 5.234259 -2.673304 -4.542620 1.257445
RightUpLeg 9.359058 -0.738356 -7.806599
RightLeg -3.899227 -0.000000 0.000000
RightFoot -11.186517 -14.397337 19.382291
RightToeBase 11.683417 -0.000000 -0.000000
LeftUpLeg 8.057345 -0.330354 7.947843
LeftLeg -1.351884 -0.000000 0.000000
LeftFoot -6.159059 5.590735 -22.146004
LeftToeBase 7.559825 -0.000000 -0.000000
Spine 9.585973 -10.365073 -4.354384
RightShoulder -5.331343 -40.338202 -7.092972
RightArm 29.433880 -59.081332 61.331614
RightForeArm 8.019206 0.000000 40.138810
RightHand 5.337091 0.000000 18.317905
RightHandThumb1 -24.326973 -0.000000 -32.862282
LeftShoulder -31.307237 53.320159 -13.526007
LeftArm 66.954201 59.013055 -30.359943
LeftForeArm 40.119116 0.000000 42.313900
LeftHand -1.960989 -0.000000 -11.222561
LeftHandThumb1 -26.253704 0.000000 33.147579
Head 9.352820 19.565547 3.712025
1534
root 3.265308 36.937914 5.231024 -2.469720 -4.568572 1.267809
RightUpLeg 9.149576 -0.772720 -7.817596
RightLeg -3.909236 -0.000000 0.000000
RightFoot -11.137186 -14.393779 19.419176
RightToeBase 11.687655 -0.000000 -0.000000
LeftUpLeg 7.831501 -0.314429 7.927982
LeftLeg -1.308506 -0.000000 0.000000
LeftFoot -6.151840 5.644668 -22.165471
LeftToeBase 7.549909 -0.000000 -0.000000
Spine 9.321886 -10.416048 -4.346214
RightShoulder -6.403476 -40.076246 -6.661143
RightArm 28.482629 -58.622471 62.820104
RightForeArm 7.246111 0.000000 39.195323
RightHand 5.171802 -0.000000 18.877428
RightHandThumb1 -24.326973 -0.000000 -32.862282
LeftShoulder -32.002903 53.072200 -13.705993
LeftArm 66.113646 59.209184 -31.957409
LeftForeArm 40.871734 0.000000 41.077424
LeftHand -0.964175 -0.000000 -9.564841
LeftHandThumb1 -26.253704 0.000000 33.147579
Head 9.153084 19.670234 3.768683
1535
root 3.267857 36.943749 5.229658 -2.282869 -4.609771 1.274410
RightUpLeg 8.969890 -0.758600 -7.821735
RightLeg -3.948585 -0.000000 0.000000
RightFoot -11.089079 -14.410570 19.459073
RightToeBase 11.701831 -0.000000 -0.000000
LeftUpLeg 7.640882 -0.300621 7.910575
LeftLeg -1.288144 -0.000000 0.000000
LeftFoot -6.143105 5.706327 -22.185256
LeftToeBase 7.553856 -0.000000 -0.000000
Spine 9.064334 -10.462618 -4.318987
RightShoulder -7.435807 -39.781514 -6.276650
RightArm 27.314159 -58.069009 64.507816
RightForeArm 6.397784 -0.000000 38.303421
RightHand 5.131772 -0.000000 19.436524
RightHandThumb1 -24.326973 -0.000000 -32.862282
LeftShoulder -32.538135 52.789171 -13.791883
LeftArm 64.763622 59.440476 -33.997215
LeftForeArm 41.926883 -0.000000 40.014117
LeftHand -0.664379 0.000000 -8.929309
LeftHandThumb1 -26.253704 0.000000 33.147579
Head 8.969486 19.848488 3.807871
1536
root 3.273767 36.949068 5.234140 -2.118532 -4.663906 1.294363
RightUpLeg 8.816990 -0.761380 -7.850208
RightLeg -3.992772 -0.000000 0.000000
RightFoot -11.004419 -14.388794 19.432571
RightToeBase 11.660630 -0.000000 -0.000000
LeftUpLeg 7.499885 -0.254615 7.874476
LeftLeg -1.303381 -0.000000 0.000000
LeftFoot -6.113356 5.768967 -22.177240
LeftToeBase 7.561846 -0.000000 -0.000000
Spine 8.810097 -10.575378 -4.308179
RightShoulder -8.363696 -39.457032 -5.961115
RightArm 25.984315 -57.444377 66.259287
RightForeArm 5.464320 0.000000 37.539537
RightHand 5.044357 -0.000000 20.124853
RightHandThumb1 -24.326973 -0.000000 -32.862282
LeftShoulder -33.183174 52.583331 -14.024303
LeftArm 63.170907 59.559074 -36.265903
LeftForeArm 42.957848 -0.000000 38.987074
LeftHand -0.527501 -0.000000 -8.263030
LeftHandThumb1 -26.253704 0.000000 33.147579
Head 8.851174 20.068781 3.815319
1537
root 3.274167 36.954520 5.235165 -1.935203 -4.655745 1.299286
RightUpLeg 8.638196 -0.855589 -7.855206
RightLeg -3.996217 -0.000000 0.000000
RightFoot -10.950182 -14.359049 19.422242
RightToeBase 11.637962 -0.000000 -0.000000
LeftUpLeg 7.310316 -0.253287 7.866243
LeftLeg -1.291679 -0.000000 0.000000
LeftFoot -6.089685 5.788693 -22.201439
LeftToeBase 7.593378 -0.000000 -0.000000
Spine 8.527311 -10.759618 -4.287458
RightShoulder -9.215120 -39.063608 -5.724991
RightArm 24.576715 -56.876332 68.068195
RightForeArm 4.530096 -0.000000 36.811731
RightHand 4.942126 -0.000000 20.709481
RightHandThumb1 -24.326973 -0.000000 -32.862282
LeftShoulder -33.752488 52.363492 -14.197655
LeftArm 61.472591 59.677585 -38.612799
LeftForeArm 44.022824 0.000000 37.942845
LeftHand 0.106443 -0.000000 -7.086308
LeftHandThumb1 -26.253704 0.000000 33.147579
Head 8.782199 20.357744 3.860018
